<?xml version="1.0" standalone="no"?>
<!DOCTYPE svg PUBLIC "-//W3C//DTD SVG 20010904//EN"
 "http://www.w3.org/TR/2001/REC-SVG-20010904/DTD/svg10.dtd">
<svg version="1.0" xmlns="http://www.w3.org/2000/svg"
 width="327.000000pt" height="78.000000pt" viewBox="0 0 327.000000 78.000000"
 preserveAspectRatio="xMidYMid meet">

<g transform="translate(0.000000,78.000000) scale(0.100000,-0.100000)"
fill="currentColor" stroke="none">
<path d="M2015 533 c-30 -8 -53 -32 -60 -63 -3 -16 -13 -31 -21 -34 -19 -7
-18 -46 1 -46 12 0 15 -18 15 -100 l0 -100 35 0 35 0 0 100 0 100 30 0 30 0 0
-100 0 -100 35 0 35 0 0 170 c0 170 0 170 -22 170 -13 0 -39 2 -58 4 -19 3
-44 2 -55 -1z m65 -73 c0 -16 -7 -20 -30 -20 -23 0 -30 4 -30 20 0 16 7 20 30
20 23 0 30 -4 30 -20z"/>
<path d="M1380 505 c0 -22 4 -25 40 -25 36 0 40 3 40 25 0 23 -4 25 -40 25
-36 0 -40 -2 -40 -25z"/>
<path d="M1750 360 l0 -170 30 0 30 0 0 170 0 170 -30 0 -30 0 0 -170z"/>
<path d="M224 441 c-52 -32 -71 -128 -39 -196 25 -50 74 -68 151 -54 57 11 57
10 49 42 -6 23 -9 24 -38 16 -51 -15 -85 -11 -97 10 -19 37 -12 41 71 41 l82
0 -6 49 c-7 61 -23 88 -61 101 -43 15 -77 12 -112 -9z m100 -57 c11 -29 6 -34
-39 -34 -49 0 -50 1 -35 31 13 24 65 26 74 3z"/>
<path d="M681 448 c-46 -25 -64 -62 -64 -128 1 -64 17 -101 54 -121 26 -14
105 -14 142 0 22 9 25 14 18 33 -6 17 -14 22 -32 18 -13 -2 -42 -4 -64 -5 -36
0 -40 3 -43 28 l-3 27 75 0 76 0 0 49 c0 67 -29 101 -90 107 -26 3 -55 -1 -69
-8z m87 -75 c3 -21 -1 -23 -37 -23 -33 0 -41 4 -41 18 0 27 10 33 45 30 22 -2
31 -9 33 -25z"/>
<path d="M914 446 c-67 -30 -74 -192 -10 -245 9 -8 37 -14 61 -13 45 0 45 0
45 -34 0 -32 2 -34 35 -34 l35 0 0 159 c0 88 -4 162 -9 165 -23 15 -127 16
-157 2z m94 -123 c-3 -74 -4 -78 -27 -81 -34 -5 -51 22 -51 79 0 68 7 79 46
79 l35 0 -3 -77z"/>
<path d="M1544 441 c-52 -32 -71 -128 -39 -196 25 -50 74 -68 151 -54 57 11
57 10 49 42 -6 23 -9 24 -38 16 -51 -15 -85 -11 -97 10 -19 37 -12 41 71 41
l82 0 -6 49 c-7 61 -23 88 -61 101 -43 15 -77 12 -112 -9z m100 -57 c11 -29 6
-34 -39 -34 -49 0 -50 1 -35 31 13 24 65 26 74 3z"/>
<path d="M2243 450 c-49 -20 -75 -110 -54 -188 14 -52 45 -74 105 -74 52 -1
92 21 106 58 15 39 12 122 -6 159 -22 48 -92 69 -151 45z m81 -56 c19 -19 22
-124 4 -142 -21 -21 -58 -14 -68 14 -17 43 -12 102 10 124 24 24 34 25 54 4z"/>
<path d="M2525 443 c-20 -11 -30 -12 -33 -4 -2 6 -15 11 -28 11 l-24 0 0 -130
0 -130 35 0 35 0 0 95 c0 102 2 105 55 109 16 1 26 8 30 24 11 44 -16 54 -70
25z"/>
<path d="M2665 451 c-41 -17 -59 -50 -63 -115 -4 -62 11 -115 39 -132 26 -15
82 -21 121 -12 54 12 63 20 49 47 -10 17 -16 19 -37 11 -56 -22 -104 -7 -104
32 0 16 10 18 81 18 l81 0 -7 48 c-3 26 -13 57 -21 70 -24 38 -89 53 -139 33z
m87 -76 c5 -24 3 -25 -38 -25 -24 0 -44 4 -44 9 0 28 15 41 45 41 27 0 34 -4
37 -25z"/>
<path d="M2885 448 c-48 -26 -58 -69 -25 -111 11 -13 32 -28 47 -32 44 -10 73
-33 66 -51 -6 -16 -43 -16 -99 1 -17 5 -23 1 -27 -17 -8 -30 -1 -36 57 -47 57
-11 111 2 126 29 20 36 12 87 -16 109 -15 12 -33 21 -40 21 -24 0 -64 23 -64
38 0 11 13 13 58 10 55 -3 57 -2 60 23 3 22 -2 27 -29 33 -46 9 -91 7 -114 -6z"/>
<path d="M400 425 c0 -22 4 -24 60 -27 l60 -3 -60 -78 c-36 -47 -60 -87 -60
-102 l0 -25 105 0 105 0 0 28 0 28 -60 -4 c-33 -2 -60 0 -60 4 0 5 27 44 60
87 33 42 60 86 60 97 0 19 -7 20 -105 20 -105 0 -105 0 -105 -25z"/>
<path d="M1120 351 c0 -55 4 -111 10 -126 14 -38 51 -48 107 -29 33 11 48 13
51 5 2 -6 15 -11 28 -11 l24 0 0 130 0 130 -35 0 -35 0 0 -94 c0 -94 0 -94
-27 -103 -49 -17 -53 -10 -53 98 l0 99 -35 0 -35 0 0 -99z"/>
<path d="M1390 320 l0 -130 30 0 30 0 0 130 0 130 -30 0 -30 0 0 -130z"/>
</g>
</svg>
