<?xml version="1.0" standalone="no"?>
<!DOCTYPE svg PUBLIC "-//W3C//DTD SVG 20010904//EN"
 "http://www.w3.org/TR/2001/REC-SVG-20010904/DTD/svg10.dtd">
<svg version="1.0" xmlns="http://www.w3.org/2000/svg"
 width="2080.000000pt" height="760.000000pt" viewBox="0 0 2080.000000 760.000000"
 preserveAspectRatio="xMidYMid meet">

<g transform="translate(0.000000,760.000000) scale(0.100000,-0.100000)"
fill="currentColor" stroke="none">
<path d="M3375 5460 c-175 -26 -337 -110 -471 -245 -114 -114 -190 -265 -219
-432 -22 -127 -22 -1659 0 -1787 30 -174 104 -315 229 -442 96 -97 200 -161
336 -207 l95 -32 5228 -3 c4192 -2 5228 0 5231 10 2 7 12 47 21 88 89 393 396
969 795 1494 58 76 111 147 119 157 13 19 6 19 -321 19 -184 0 -337 2 -340 5
-9 9 55 187 112 315 91 205 231 439 387 651 81 110 252 317 306 370 20 21 37
40 37 43 0 9 -11486 5 -11545 -4z m2013 -1357 l-3 -898 -217 -3 -218 -2 0 900
0 900 220 0 220 0 -2 -897z m4322 512 l0 -155 350 0 350 0 0 -155 0 -155 -350
0 -350 0 0 -255 c0 -212 3 -261 16 -295 23 -57 71 -80 164 -80 132 0 180 43
180 163 l0 67 170 0 170 0 0 -113 c0 -194 -28 -286 -112 -364 -74 -68 -186
-93 -413 -93 -346 0 -499 53 -573 200 -44 89 -52 157 -52 488 l0 282 -110 0
-110 0 0 155 0 155 110 0 110 0 0 155 0 155 225 0 225 0 0 -155z m-5367 -145
c235 -35 351 -144 387 -362 5 -35 10 -129 10 -210 l0 -148 -571 0 -572 0 5
-74 c6 -95 28 -133 93 -166 48 -24 59 -25 260 -28 294 -5 340 8 352 97 l6 41
215 0 215 0 -5 -72 c-14 -189 -114 -297 -318 -343 -172 -38 -734 -29 -906 15
-173 44 -275 137 -319 289 -34 117 -43 296 -25 482 37 363 149 462 555 489
164 10 520 5 618 -10z m2332 9 c213 -18 308 -51 385 -135 85 -93 109 -177 117
-416 l6 -178 -573 -2 -574 -3 3 -65 c3 -78 18 -118 59 -152 46 -39 111 -48
330 -48 262 0 304 13 318 100 l7 40 213 0 214 0 0 -37 c0 -52 -26 -155 -49
-201 -42 -82 -145 -148 -278 -178 -94 -22 -474 -30 -671 -15 -357 27 -494 113
-559 351 -26 94 -26 458 0 579 42 197 141 298 332 337 140 29 515 41 720 23z
m1890 -8 c102 -16 163 -36 225 -73 103 -62 153 -164 166 -338 l7 -90 -220 0
-221 0 -10 43 c-12 47 -41 79 -87 98 -42 17 -333 24 -424 10 -169 -26 -214
-87 -214 -286 0 -160 30 -226 123 -269 39 -18 69 -21 219 -24 186 -4 267 5
334 40 40 20 67 65 67 113 l0 25 220 0 220 0 0 -49 c0 -76 -26 -194 -56 -256
-85 -173 -288 -235 -777 -235 -295 0 -447 22 -560 82 -115 61 -184 171 -213
340 -21 122 -15 442 11 532 63 222 206 316 525 345 131 12 571 6 665 -8z
m3048 5 c97 -19 136 -36 187 -82 77 -70 106 -163 112 -359 l3 -120 -202 -3
c-112 -1 -203 1 -203 5 0 5 -5 37 -10 72 -16 111 -64 141 -224 141 -107 0
-154 -13 -205 -56 -74 -64 -75 -72 -81 -494 l-5 -375 -215 0 -215 0 -3 628 -2
627 220 0 220 0 0 -112 0 -111 30 61 c50 98 121 148 253 177 83 18 248 18 340
1z m1557 4 c124 -12 238 -38 302 -71 55 -28 119 -95 146 -152 46 -97 55 -180
49 -442 -3 -132 -10 -260 -16 -285 -62 -285 -218 -350 -836 -350 -337 0 -507
20 -607 71 -92 47 -159 138 -189 259 -20 78 -20 572 0 650 53 207 165 286 451
319 109 12 565 13 700 1z"/>
<path d="M3793 4200 c-128 -14 -183 -58 -191 -155 l-4 -55 358 2 359 3 -4 55
c-4 67 -24 105 -68 125 -65 31 -280 43 -450 25z"/>
<path d="M6240 4200 c-88 -9 -131 -25 -165 -60 -23 -25 -30 -41 -33 -90 l-4
-60 356 0 356 0 0 48 c0 59 -26 111 -66 134 -56 33 -272 46 -444 28z"/>
<path d="M12695 4140 c-129 -11 -195 -43 -231 -113 -20 -38 -32 -185 -23 -284
9 -110 31 -151 95 -183 48 -25 53 -25 294 -25 173 0 256 4 281 13 47 17 95 68
108 117 14 53 14 303 0 346 -17 49 -56 86 -110 104 -42 14 -248 37 -304 33
-11 0 -61 -4 -110 -8z"/>
<path d="M15899 5408 c-67 -44 -144 -112 -264 -233 -188 -187 -308 -326 -481
-558 l-115 -152 175 -7 c168 -7 411 -39 429 -57 5 -5 -26 -34 -70 -66 -112
-84 -407 -383 -564 -575 -233 -283 -482 -626 -731 -1005 -157 -238 -278 -431
-278 -440 0 -3 849 -4 1888 -3 l1887 3 85 29 c110 37 169 67 252 128 172 127
286 313 323 528 14 75 15 210 13 932 l-3 843 -23 80 c-84 289 -290 498 -582
587 l-75 22 -886 4 -886 3 -94 -63z m1462 -638 c250 -22 357 -80 410 -220 29
-76 43 -237 30 -343 -18 -149 -64 -206 -203 -253 l-83 -28 77 -18 c135 -31
186 -70 225 -169 14 -35 17 -77 17 -209 0 -150 -2 -170 -23 -224 -84 -210
-257 -253 -981 -241 -536 9 -599 20 -702 125 -80 82 -102 154 -103 340 l0 135
207 3 206 2 7 -67 c9 -89 20 -125 50 -153 23 -21 36 -23 247 -32 312 -14 534
-7 584 18 62 31 79 63 77 149 0 54 -6 84 -20 107 -35 60 -49 63 -355 66 l-278
3 0 164 0 165 253 1 c272 0 306 5 340 50 36 49 35 185 -2 230 -28 35 -130 49
-391 56 -342 8 -434 -10 -471 -91 -10 -23 -19 -64 -19 -93 l0 -53 -217 0 -216
0 6 118 c16 278 86 375 313 432 43 11 124 24 179 29 143 12 699 13 836 1z"/>
</g>
</svg>
