<?xml version="1.0" standalone="no"?>
<!DOCTYPE svg PUBLIC "-//W3C//DTD SVG 20010904//EN"
 "http://www.w3.org/TR/2001/REC-SVG-20010904/DTD/svg10.dtd">
<svg version="1.0" xmlns="http://www.w3.org/2000/svg"
 width="1280.000000pt" height="968.000000pt" viewBox="0 0 1280.000000 968.000000"
 preserveAspectRatio="xMidYMid meet">

<g transform="translate(0.000000,968.000000) scale(0.100000,-0.100000)"
fill="currentColor" stroke="none">
<path d="M0 4840 l0 -4840 6400 0 6400 0 0 4840 0 4840 -6400 0 -6400 0 0
-4840z m6667 4260 c394 -46 806 -195 1108 -401 59 -41 115 -78 123 -84 124
-81 376 -329 500 -492 48 -64 162 -230 162 -236 0 -1 -192 -2 -428 -2 l-427 0
-57 -28 c-32 -16 -75 -48 -97 -74 l-40 -45 -78 67 c-255 218 -563 346 -905
377 l-128 12 0 463 0 463 49 0 c28 0 125 -9 218 -20z m-463 -39 c13 -11 16
-34 16 -132 0 -151 2 -149 -135 -149 -57 0 -115 4 -129 10 -25 9 -25 12 -28
117 -3 117 4 159 30 167 37 11 229 1 246 -13z m-1668 -25 c25 -28 25 -29 22
-216 -3 -168 -5 -190 -22 -209 -18 -20 -29 -21 -216 -21 -260 0 -240 -19 -240
229 0 174 2 190 20 214 11 14 30 28 43 30 12 3 100 4 195 4 l174 -2 24 -29z
m1174 -295 c59 -31 60 -36 60 -366 0 -323 -1 -331 -53 -369 -27 -20 -39 -21
-330 -21 -302 0 -302 0 -335 24 -18 13 -38 34 -43 48 -5 13 -9 158 -9 321 0
290 0 296 22 328 13 18 32 37 43 43 12 6 144 10 315 10 269 1 298 -1 330 -18z
m-1764 -158 c8 -30 -17 -56 -51 -51 -15 2 -21 12 -23 41 -3 36 -3 37 32 37 30
0 37 -4 42 -27z m350 -161 c16 -16 19 -148 4 -172 -13 -21 -168 -20 -181 1
-11 17 -12 149 -1 165 12 18 34 23 101 21 39 -1 69 -7 77 -15z m431 -198 c9
-12 13 -53 13 -132 0 -98 -3 -117 -17 -128 -13 -9 -53 -13 -134 -14 -96 0
-119 3 -130 17 -10 11 -15 53 -18 128 -3 106 -2 114 19 135 22 22 28 22 138
18 96 -5 118 -9 129 -24z m1433 -104 l0 -90 -84 0 c-67 0 -85 3 -90 16 -8 21
-8 149 1 157 3 4 44 7 90 7 l83 0 0 -90z m-1080 -361 l0 -59 -60 0 -60 0 0 59
0 60 38 3 c77 6 82 2 82 -63z m-333 -42 l28 -27 3 -281 3 -280 -35 -35 -34
-34 -272 0 c-301 0 -319 3 -340 63 -14 41 -13 532 1 560 6 12 23 32 37 45 27
22 29 22 304 20 l278 -3 27 -28z m2259 1 c7 -12 9 -197 2 -203 -3 -3 -49 -6
-102 -6 -74 -1 -100 2 -107 12 -10 16 -12 152 -3 186 6 20 13 22 88 25 89 3
113 0 122 -14z m-879 -9 c39 -14 72 -48 89 -89 13 -29 15 -101 12 -430 l-2
-395 149 -152 149 -153 405 0 406 0 149 150 149 150 -2 390 c-3 411 0 442 43
488 46 52 48 52 459 52 422 0 432 -1 475 -59 22 -30 22 -31 22 -434 0 -403 0
-404 -22 -437 -48 -70 -47 -70 -489 -70 l-397 0 -147 -148 -148 -148 2 -407
c2 -451 2 -454 -63 -500 -31 -22 -36 -22 -421 -25 -431 -3 -434 -3 -485 61
l-25 31 -1 421 -2 420 -144 148 -144 148 -418 0 c-230 0 -419 -1 -420 -3 -1
-2 -66 -69 -145 -150 l-143 -146 1 -409 c1 -382 0 -410 -17 -443 -11 -19 -35
-44 -53 -55 -32 -19 -55 -20 -419 -23 -384 -2 -385 -2 -424 20 -22 13 -49 39
-60 58 -20 34 -21 50 -21 421 l0 385 25 37 c13 20 41 45 61 56 35 20 52 21
426 21 l389 0 149 150 c82 82 152 156 156 162 4 7 3 40 -3 73 -6 35 -8 200 -6
390 4 295 6 334 23 368 20 43 49 66 98 77 51 13 751 12 784 -1z m481 -356 c3
-35 0 -42 -18 -48 -12 -4 -32 -4 -46 -1 -20 5 -24 12 -24 45 0 47 6 53 50 49
33 -3 35 -5 38 -45z m2235 -133 c64 -260 81 -389 81 -635 1 -280 -25 -480 -95
-723 -16 -56 -29 -109 -29 -117 0 -8 -4 -15 -10 -15 -5 0 -10 -6 -10 -13 0
-31 -135 -336 -183 -412 -6 -10 -30 -49 -52 -85 -238 -393 -620 -740 -1040
-945 -330 -160 -616 -234 -1007 -261 l-98 -6 0 464 0 465 134 11 c148 13 183
20 341 69 114 37 325 130 325 145 0 4 6 8 13 8 52 0 350 262 454 400 197 261
311 561 329 868 l7 111 281 3 281 3 54 29 c67 34 121 90 152 153 23 46 24 57
27 333 2 157 7 278 11 270 5 -8 20 -62 34 -120z m-1578 95 l25 -24 0 -220 c0
-292 19 -274 -292 -269 -182 3 -187 4 -212 27 l-26 24 0 214 c0 223 4 247 43
263 12 5 116 9 230 9 208 1 208 1 232 -24z m-3145 -424 c5 -11 10 -63 10 -116
0 -138 3 -135 -133 -135 -62 0 -119 4 -127 10 -23 14 -28 202 -6 235 16 24 20
25 131 25 103 0 115 -2 125 -19z m824 -7 c3 -9 6 -37 6 -64 0 -59 -17 -79 -62
-76 -18 2 -48 4 -65 5 l-33 1 0 68 c0 38 3 72 7 75 3 4 37 7 74 7 52 0 68 -4
73 -16z m947 -455 l29 -31 0 -223 0 -223 -31 -31 -31 -31 -214 0 c-228 0 -260
6 -284 49 -6 12 -10 107 -10 236 0 186 2 221 17 246 9 15 24 30 32 32 9 3 117
5 239 6 l224 1 29 -31z m257 -811 c8 -8 12 -49 12 -117 0 -140 -1 -141 -132
-141 -141 0 -138 -3 -138 133 0 75 4 117 12 125 8 8 50 12 123 12 73 0 115 -4
123 -12z m-644 -24 c12 -5 16 -20 16 -60 0 -48 -2 -54 -24 -60 -13 -3 -38 -4
-57 -2 -33 3 -34 4 -37 52 -2 27 -1 55 2 62 6 14 70 19 100 8z m-704 -344 c18
-18 20 -33 20 -168 0 -203 11 -192 -186 -192 -205 0 -194 -10 -194 192 0 127
3 154 17 170 14 16 34 18 170 18 140 0 155 -2 173 -20z m990 -158 c66 -33 70
-51 70 -372 0 -414 24 -390 -380 -390 -158 0 -291 4 -312 10 -23 7 -46 23 -60
43 -23 32 -23 35 -23 333 0 278 1 303 19 336 12 23 31 40 50 46 17 6 158 10
316 11 253 1 289 -1 320 -17z m-1414 -275 c24 -28 24 -31 24 -235 0 -203 -1
-208 -24 -237 l-24 -30 -215 -3 -215 -3 -33 29 -33 30 -2 193 c-1 107 2 209 8
227 17 58 38 62 276 59 l214 -2 24 -28z m1802 -81 c3 -67 -3 -76 -60 -76 -62
0 -68 6 -68 69 0 32 3 61 7 65 4 4 32 6 63 4 l55 -3 3 -59z m-1399 -180 c8 -9
11 -47 9 -107 l-3 -94 -99 -3 c-64 -2 -103 1 -112 9 -18 15 -20 179 -2 197 18
18 192 16 207 -2z m1365 -312 c13 -5 16 -24 16 -99 0 -88 -1 -93 -22 -99 -40
-10 -166 -7 -174 5 -10 17 -18 143 -10 173 6 25 8 26 90 26 47 0 91 -3 100 -6z
m-1696 -86 c14 -14 16 -43 3 -66 -7 -14 -19 -17 -50 -14 -39 4 -41 6 -41 36 0
39 15 56 50 56 14 0 31 -5 38 -12z m-1184 -823 c47 -20 79 -71 110 -175 29
-99 130 -410 226 -695 244 -725 270 -810 264 -845 -16 -80 -71 -140 -131 -140
-47 0 -99 26 -127 64 -14 17 -65 158 -119 321 l-95 290 -190 3 -190 2 -7 -32
c-4 -18 -47 -152 -96 -298 -75 -223 -94 -270 -121 -299 -38 -39 -66 -51 -114
-51 -28 0 -45 9 -81 43 -71 68 -70 84 25 372 74 224 201 607 371 1129 40 120
81 236 92 258 32 63 107 85 183 53z m2019 0 c76 -31 108 -129 67 -202 -41 -74
-56 -78 -302 -79 -119 -1 -221 -5 -227 -8 -8 -5 -11 -218 -11 -735 l0 -728
-22 -33 c-66 -97 -213 -89 -262 14 -14 30 -16 111 -16 759 l0 726 -222 3
c-243 4 -259 7 -299 61 -51 70 -31 172 43 217 32 19 52 20 624 20 499 0 597
-2 627 -15z m480 -11 c15 -10 34 -35 44 -54 17 -33 18 -90 21 -815 2 -429 0
-804 -3 -834 -6 -44 -14 -61 -45 -95 -37 -39 -41 -41 -97 -41 -65 0 -101 20
-135 76 -17 28 -18 75 -18 857 0 773 1 829 18 854 18 27 56 60 82 71 28 12
107 0 133 -19z m518 15 c51 -18 74 -43 154 -174 209 -344 308 -507 409 -670
62 -99 124 -200 138 -225 14 -25 35 -54 47 -64 l21 -19 1 89 c1 49 3 286 4
526 2 406 4 439 21 469 58 98 189 103 251 10 l23 -34 0 -828 c0 -826 0 -828
-21 -864 -24 -41 -83 -75 -129 -75 -65 0 -98 31 -180 170 -25 41 -48 77 -52
78 -5 2 -8 7 -8 12 0 9 -18 39 -218 365 -138 227 -172 281 -204 327 -10 15
-18 30 -18 34 0 4 -10 21 -23 38 -12 17 -28 42 -35 56 -23 45 -49 73 -61 66
-8 -5 -11 -148 -11 -523 l0 -516 -26 -34 c-76 -100 -199 -96 -251 7 l-23 44 0
803 c0 701 2 808 15 840 20 48 42 72 80 89 37 17 53 17 96 3z m2630 -8 c35
-18 69 -80 69 -126 0 -48 -33 -106 -73 -131 -30 -18 -61 -19 -432 -24 l-400
-5 -3 -204 c-2 -142 1 -208 9 -217 9 -11 79 -14 378 -14 345 0 368 -1 398 -20
47 -28 65 -62 65 -119 -1 -65 -23 -106 -72 -131 -37 -19 -58 -20 -404 -20
l-366 0 -5 -22 c-3 -13 -4 -133 -3 -268 l3 -245 395 -5 c386 -5 396 -6 437
-28 100 -53 96 -199 -7 -253 -32 -18 -67 -19 -518 -19 -536 0 -527 -1 -578 66
l-29 37 -1 561 c0 309 2 684 5 834 4 258 5 276 25 305 46 69 36 68 586 65 392
-2 500 -6 521 -17z m1572 -4 c66 -43 85 -127 45 -198 -38 -67 -63 -74 -307
-76 -117 -1 -215 -4 -218 -6 -2 -3 -4 -318 -3 -700 0 -383 -3 -715 -6 -737 -5
-28 -19 -54 -44 -81 -33 -35 -44 -41 -93 -46 -70 -7 -120 20 -148 81 -18 39
-19 81 -19 763 l0 721 -222 4 c-254 3 -272 8 -308 83 -37 77 -17 153 52 195
32 20 48 20 638 18 565 -3 608 -4 633 -21z m-105 -2275 l3 -254 -22 4 c-31 4
-50 66 -37 118 7 25 7 63 1 102 -4 35 -6 77 -2 93 4 17 7 67 8 113 1 80 2 83
24 80 l22 -3 3 -253z m-7798 219 c7 -15 6 -24 -6 -36 -19 -18 -33 -16 -48 7
-7 12 -6 21 3 32 18 22 38 20 51 -3z m2044 13 c9 -3 16 -16 16 -29 0 -25 -21
-38 -45 -29 -18 7 -20 50 -2 57 6 3 13 6 14 6 1 1 8 -2 17 -5z m1406 -3 c0
-12 -21 -28 -55 -41 l-30 -11 29 30 c29 30 56 41 56 22z m1050 -25 c0 -20 -27
-39 -45 -32 -18 7 -20 52 -2 59 17 6 47 -11 47 -27z m-5235 12 c13 -43 134
-427 140 -445 6 -21 3 -23 -27 -23 -33 0 -34 1 -52 68 -11 37 -23 78 -28 92
-5 14 -9 25 -8 25 2 0 -62 184 -71 201 -8 16 -7 30 5 57 15 37 33 48 41 25z
m3523 -11 c-14 -12 -28 -29 -31 -37 -4 -10 -6 -7 -6 7 -1 25 23 53 47 53 13 0
11 -5 -10 -23z m182 -217 l0 -240 -30 0 -30 0 0 240 0 240 30 0 30 0 0 -240z
m3742 -117 l-3 -123 -30 0 -29 0 0 234 0 235 28 3 27 3 5 -115 c3 -63 4 -170
2 -237z m-3586 322 c4 -14 4 -29 0 -32 -3 -4 -6 1 -6 10 0 9 -10 23 -22 31
l-22 16 22 0 c15 0 24 -8 28 -25z m3789 9 c40 -10 58 -84 34 -137 -6 -13 -26
-32 -45 -41 -46 -21 -51 -20 -28 5 27 30 27 138 -1 170 -18 21 -19 22 -2 16
11 -4 29 -10 42 -13z m-6313 -269 c3 -203 -2 -225 -36 -172 -11 17 -15 59 -17
175 -1 137 1 155 18 172 10 10 21 19 25 19 4 1 8 -87 10 -194z m1857 93 c6
-18 12 -82 14 -143 1 -60 7 -118 11 -127 15 -32 -23 -20 -43 13 -16 27 -19 47
-16 131 4 106 -7 157 -43 185 -9 8 2 5 25 -6 30 -15 44 -30 52 -53z m2786 22
c16 -18 20 -40 23 -148 2 -70 8 -135 14 -144 7 -15 5 -18 -12 -18 -35 0 -51
56 -51 180 0 98 -2 112 -24 144 l-25 36 28 -14 c15 -8 36 -24 47 -36z m1023 2
c13 -20 18 -56 20 -164 l4 -138 -26 0 -26 0 0 130 c0 127 -7 165 -39 203 -13
16 -12 16 18 6 18 -6 40 -23 49 -37z m1343 35 c-33 -16 -60 -95 -60 -172 0
-53 7 -85 34 -147 14 -33 -23 -20 -52 19 -24 31 -29 48 -31 113 -3 63 0 84 17
119 21 41 71 81 101 81 8 0 4 -6 -9 -13z m-7611 -173 l0 -164 -25 0 -25 0 0
164 c0 149 2 165 18 169 9 2 20 2 25 0 4 -2 7 -78 7 -169z m1034 146 c29 -28
25 -78 -8 -107 -15 -12 -33 -23 -41 -23 -12 0 -12 4 1 28 18 35 18 70 -1 105
-14 27 -14 28 8 22 12 -4 31 -15 41 -25z m207 -25 c1 -22 2 -95 1 -162 l-2
-123 -29 0 -29 0 -1 163 c0 159 0 162 22 168 29 8 35 1 38 -46z m188 45 c34
-18 46 -69 46 -200 l0 -125 -27 -3 -26 -3 5 58 c9 101 -6 238 -28 262 -17 18
-17 21 -4 21 9 0 24 -4 34 -10z m278 -8 c-27 -30 -37 -70 -38 -156 -1 -90 13
-131 53 -161 l23 -17 -25 7 c-66 18 -101 67 -108 151 -7 83 28 162 83 184 29
12 30 12 12 -8z m353 -152 l0 -170 -29 0 -29 0 1 160 c2 131 5 163 17 170 38
24 40 15 40 -160z m1389 155 c32 -16 41 -33 41 -75 0 -32 -40 -70 -73 -70 -18
0 -19 2 -5 18 25 28 29 57 14 101 -15 46 -15 46 23 26z m239 4 c-39 -22 -63
-193 -36 -256 6 -15 22 -40 36 -54 l23 -26 -25 4 c-52 10 -106 99 -106 176 0
67 69 167 115 167 6 -1 2 -5 -7 -11z m534 0 c36 -19 48 -69 48 -204 l0 -125
-24 0 -24 0 -4 149 c-3 129 -5 152 -22 170 -21 23 -8 28 26 10z m1624 -20 c26
-29 23 -87 -5 -110 -13 -11 -31 -19 -41 -19 -16 0 -16 2 2 39 18 36 18 42 4
76 -9 21 -16 39 -16 40 0 10 42 -10 56 -26z m206 -6 c3 -21 3 -98 0 -170 -5
-132 -5 -133 -28 -133 l-24 0 0 170 0 170 24 0 c20 0 25 -6 28 -37z m1342 -8
c20 -52 -9 -105 -62 -118 -23 -5 -23 -5 -7 13 19 21 25 91 12 128 -9 23 -8 23
21 8 16 -8 32 -23 36 -31z m-6549 14 c-15 -16 -20 -40 -22 -116 -4 -108 7
-154 44 -183 30 -23 23 -26 -15 -6 -46 24 -72 60 -84 120 -11 50 -10 64 6 108
10 28 30 61 44 74 33 29 52 31 27 3z m2439 0 c-16 -18 -19 -37 -19 -139 0
-111 1 -120 24 -144 18 -20 21 -26 9 -26 -45 0 -98 89 -98 164 0 72 50 166 87
166 14 0 13 -3 -3 -21z m749 -11 c2 -18 2 -93 -1 -165 -5 -132 -5 -133 -28
-133 l-24 0 0 165 0 165 24 0 c19 0 25 -6 29 -32z m457 -133 l0 -165 -25 0
-25 0 0 165 0 165 25 0 25 0 0 -165z m224 127 c-38 -76 -26 -224 23 -276 l26
-28 -24 7 c-41 11 -86 68 -97 121 -17 81 10 177 58 201 32 16 33 13 14 -25z
m942 13 c-11 -17 -18 -55 -22 -116 -5 -98 9 -147 50 -181 31 -25 5 -22 -34 5
-51 34 -68 72 -69 148 -1 73 15 117 56 149 34 27 39 25 19 -5z m1533 -1 c-18
-22 -25 -181 -9 -230 7 -22 19 -47 28 -56 14 -16 14 -18 0 -18 -20 0 -76 63
-82 93 -13 62 -13 85 0 135 9 35 24 64 41 78 30 25 44 24 22 -2z m824 -11
c-18 -44 -21 -192 -4 -235 5 -15 19 -36 31 -48 27 -27 11 -25 -31 3 -42 28
-61 67 -67 135 -5 64 18 133 55 162 14 11 27 20 29 20 2 0 -4 -17 -13 -37z
m192 21 c14 -10 20 -26 20 -54 0 -46 -17 -66 -64 -80 l-34 -9 22 23 c19 21 22
33 19 80 -3 59 3 66 37 40z m-8613 -23 c-6 -46 11 -64 98 -101 119 -50 148
-98 95 -157 l-25 -28 11 28 c21 48 0 73 -99 119 -48 23 -92 48 -99 57 -17 22
-16 62 3 89 20 29 21 28 16 -7z m602 0 c-9 -43 8 -64 73 -90 126 -51 155 -84
129 -145 -18 -43 -38 -57 -27 -19 9 31 1 63 -20 79 -8 6 -40 21 -73 34 -80 32
-116 64 -116 103 0 17 7 39 17 49 22 24 23 23 17 -11z m8179 0 c-8 -33 17 -62
80 -92 34 -16 67 -29 74 -29 18 0 63 -60 63 -85 0 -12 -9 -33 -20 -46 l-20
-24 6 32 c5 28 2 37 -23 60 -17 16 -58 38 -92 51 -58 22 -101 60 -101 88 0 22
19 64 29 64 5 0 7 -9 4 -19z m-8599 -17 c18 -11 17 -12 -4 -27 -28 -20 -50
-12 -50 19 0 26 18 28 54 8z m599 2 c16 -13 16 -15 2 -30 -12 -12 -21 -13 -36
-6 -19 11 -25 31 -12 43 10 10 26 8 46 -7z m1911 -9 c15 -23 -6 -41 -38 -33
-30 7 -33 23 -8 42 20 16 32 14 46 -9z m6270 10 c18 -18 8 -37 -19 -37 -27 0
-39 14 -31 35 7 18 33 19 50 2z m-6694 -12 c16 -19 6 -45 -18 -45 -29 0 -48
26 -32 45 16 19 34 19 50 0z m1973 1 c24 -18 21 -35 -7 -42 -30 -7 -46 1 -46
25 0 33 22 40 53 17z m1051 0 c25 -13 25 -14 8 -30 -34 -30 -74 -11 -58 29 7
19 16 19 50 1z m196 -11 c0 -19 -5 -25 -23 -25 -23 0 -47 17 -47 33 0 4 4 6 9
2 5 -3 12 -1 16 5 3 5 15 10 26 10 14 0 19 -7 19 -25z m1813 -22 c41 -9 59
-44 65 -126 2 -40 9 -80 14 -89 7 -15 4 -18 -21 -18 -40 0 -51 23 -51 105 0
76 -19 119 -60 135 l-25 10 25 -5 c14 -3 38 -8 53 -12z m-4629 -94 c-26 -29
-26 -99 1 -129 l20 -23 -25 8 c-41 12 -70 45 -70 79 0 36 6 46 40 69 36 25 58
23 34 -4z m2786 -14 c-21 -40 -14 -82 17 -118 18 -20 17 -20 -12 -13 -43 10
-65 36 -67 79 -1 39 14 64 47 77 33 14 34 12 15 -25z m3353 -61 c-7 -18 -40
-18 -58 -1 -26 27 18 54 47 30 9 -8 14 -21 11 -29z m-8788 7 c0 -32 -16 -36
-45 -13 -28 23 -19 44 18 40 21 -2 27 -8 27 -27z m604 15 c9 -11 8 -18 -4 -30
-9 -9 -19 -16 -22 -16 -15 0 -41 33 -36 46 7 18 47 18 62 0z m-1106 -78 c7 -4
-7 -8 -31 -8 l-44 0 24 28 c22 28 23 28 31 8 4 -11 13 -24 20 -28z"/>
<path d="M3183 2668 c-18 -41 -66 -198 -62 -202 5 -5 75 -8 133 -7 36 1 38 2
32 29 -16 66 -70 202 -81 202 -6 0 -16 -10 -22 -22z"/>
</g>
</svg>
