<?xml version="1.0" standalone="no"?>
<!DOCTYPE svg PUBLIC "-//W3C//DTD SVG 20010904//EN"
 "http://www.w3.org/TR/2001/REC-SVG-20010904/DTD/svg10.dtd">
<svg version="1.0" xmlns="http://www.w3.org/2000/svg"
 width="510.000000pt" height="305.000000pt" viewBox="0 0 510.000000 305.000000"
 preserveAspectRatio="xMidYMid meet">

<g transform="translate(0.000000,305.000000) scale(0.100000,-0.100000)"
fill="currentColor" stroke="none">
<path d="M2310 2963 c-25 -9 -64 -29 -88 -45 l-43 -30 -37 18 c-93 45 -236 19
-301 -53 -63 -70 -90 -167 -69 -244 10 -36 8 -36 -254 -54 -235 -17 -362 -41
-456 -89 l-52 -26 -19 39 c-42 82 -118 125 -221 125 -63 1 -84 -4 -132 -27
-168 -83 -421 -504 -483 -807 -23 -111 -23 -273 -1 -365 20 -82 81 -197 128
-242 47 -46 139 -85 213 -91 l63 -5 -47 -72 c-99 -151 -135 -325 -96 -461 42
-151 165 -343 244 -383 54 -28 155 -44 231 -36 214 21 499 140 596 247 l36 41
56 -63 c85 -96 182 -129 378 -130 160 0 352 78 467 191 45 44 67 71 62 80 -5
8 -4 10 3 5 7 -4 12 -15 12 -25 0 -9 6 -23 13 -30 10 -11 10 -13 0 -7 -20 11
-16 -42 6 -90 10 -23 35 -54 55 -69 73 -55 150 -51 217 13 33 31 40 46 47 91
6 50 10 55 37 62 42 11 241 46 365 65 280 42 372 54 455 64 294 34 819 116
905 142 87 26 191 81 266 140 155 121 233 299 204 465 -14 82 -28 111 -76 153
-53 46 -93 60 -176 60 -65 -1 -119 -13 -189 -44 -13 -6 -17 2 -22 43 -22 186
-231 316 -407 254 -30 -11 -62 -23 -72 -27 -22 -10 61 151 112 215 21 27 53
74 70 104 35 61 36 93 7 171 -9 22 -22 90 -30 151 -36 278 -195 423 -465 423
-150 0 -282 -48 -372 -136 -45 -44 -46 -44 -116 -44 -39 0 -93 -7 -120 -17
-59 -19 -168 -88 -208 -132 -17 -17 -33 -31 -36 -31 -4 0 -10 32 -13 71 -7 81
-28 124 -78 157 -47 33 -126 27 -195 -13 -37 -22 -62 -29 -104 -30 -30 -1 -63
-5 -74 -10 -17 -8 -18 -4 -10 56 14 97 9 189 -10 226 -31 62 -99 83 -176 56z
m160 -268 c0 -5 -5 -3 -10 5 -5 8 -10 20 -10 25 0 6 5 3 10 -5 5 -8 10 -19 10
-25z m-59 -47 c16 -29 7 -95 -40 -284 -43 -170 -85 -445 -78 -503 2 -20 7 -44
11 -53 7 -15 -5 -24 -64 -52 -39 -19 -78 -32 -85 -30 -7 3 -21 20 -31 39 l-18
34 -58 -54 c-128 -119 -221 -87 -220 75 0 122 54 247 148 343 58 60 105 81
160 75 19 -2 34 -1 34 2 0 8 16 140 31 257 12 90 21 102 114 151 52 27 81 27
96 0z m66 0 c-3 -8 -6 -5 -6 6 -1 11 2 17 5 13 3 -3 4 -12 1 -19z m-354 -29
c76 -34 59 -196 -29 -284 -74 -74 -123 -86 -369 -96 -354 -13 -476 -27 -579
-66 -64 -24 -78 -45 -48 -73 28 -27 28 -38 -3 -52 -32 -14 -70 1 -78 32 -8 30
42 83 117 124 109 60 208 81 486 100 117 9 228 22 258 31 46 14 52 19 52 43 0
15 -7 40 -15 56 -47 90 29 196 142 196 23 0 53 -5 66 -11z m354 -36 c-3 -10
-5 -2 -5 17 0 19 2 27 5 18 2 -10 2 -26 0 -35z m-10 -65 c-3 -8 -6 -5 -6 6 -1
11 2 17 5 13 3 -3 4 -12 1 -19z m306 15 c-7 -2 -19 -2 -25 0 -7 3 -2 5 12 5
14 0 19 -2 13 -5z m-986 -35 c-3 -7 -5 -2 -5 12 0 14 2 19 5 13 2 -7 2 -19 0
-25z m2039 0 c99 -19 181 -81 237 -178 30 -51 32 -62 34 -158 1 -63 6 -108 13
-117 10 -12 9 -20 -5 -42 -33 -50 -76 -91 -108 -103 -18 -7 -48 -20 -67 -30
-19 -9 -48 -20 -65 -24 l-30 -6 29 16 c22 13 26 18 15 25 -8 5 -9 9 -4 9 6 0
-55 33 -135 73 -216 107 -380 223 -380 267 0 28 69 160 83 160 8 0 63 -38 123
-84 112 -85 228 -155 240 -143 4 4 2 12 -3 19 -6 7 -18 40 -27 73 -10 33 -23
80 -30 105 -8 25 -19 64 -25 88 -7 23 -17 42 -24 43 -19 1 25 18 49 18 11 1
47 -4 80 -11z m-997 -94 c12 -15 21 -40 21 -57 0 -34 -37 -170 -82 -297 -66
-192 -64 -204 45 -213 156 -13 274 10 377 73 44 27 68 36 75 29 15 -15 9 -99
-11 -150 -43 -109 -93 -141 -231 -147 -82 -4 -101 -1 -180 26 -48 16 -109 33
-134 36 l-47 7 -30 -48 c-57 -89 -129 -153 -220 -193 -148 -66 -233 -30 -219
91 11 93 73 172 178 227 l56 29 -39 41 c-36 39 -38 44 -38 109 0 80 42 294 64
328 22 33 116 77 158 73 32 -3 33 -5 32 -43 -1 -22 -13 -73 -28 -113 -15 -40
-30 -96 -33 -123 -6 -49 -5 -51 18 -47 19 2 28 15 47 68 13 36 27 103 32 149
10 92 29 123 94 155 45 22 72 20 95 -10z m-1101 9 c-10 -2 -28 -2 -40 0 -13 2
-5 4 17 4 22 1 32 -1 23 -4z m1179 -15 c-3 -8 -6 -5 -6 6 -1 11 2 17 5 13 3
-3 4 -12 1 -19z m-1340 6 c-3 -3 -12 -4 -19 -1 -8 3 -5 6 6 6 11 1 17 -2 13
-5z m-642 -68 c18 -8 48 -33 64 -57 40 -54 41 -105 4 -185 -20 -42 -28 -74
-27 -111 0 -49 -2 -53 -29 -63 -42 -14 -74 -13 -113 6 -19 9 -36 15 -37 13
-113 -158 -153 -221 -191 -297 -74 -153 -83 -239 -30 -301 37 -44 80 -54 208
-49 l111 6 220 89 c414 169 476 188 610 188 175 0 237 -41 196 -128 -25 -53
-40 -70 -122 -133 -69 -54 -119 -84 -141 -84 -7 0 -20 18 -29 39 -25 58 -52
71 -150 72 -118 1 -194 -16 -434 -96 -171 -57 -262 -77 -370 -78 -90 -2 -106
1 -150 24 -116 59 -177 225 -154 413 24 188 129 407 296 617 91 113 180 152
268 115z m2364 4 c7 0 -1 -14 -19 -30 -32 -30 -32 -31 -25 -95 6 -60 5 -66
-18 -89 -25 -24 -79 -41 -112 -34 -56 10 -77 119 -36 177 33 47 125 86 176 75
11 -2 26 -4 34 -4z m-326 -35 c-3 -9 -8 -14 -10 -11 -3 3 -2 9 2 15 9 16 15
13 8 -4z m-66 -37 c-3 -8 -6 -5 -6 6 -1 11 2 17 5 13 3 -3 4 -12 1 -19z m-20
-70 c-3 -8 -6 -5 -6 6 -1 11 2 17 5 13 3 -3 4 -12 1 -19z m-1063 -50 c24 -33
20 -85 -20 -271 -33 -156 -35 -170 -20 -192 16 -24 15 -25 -28 -50 -64 -37
-108 -43 -135 -16 -28 28 -27 66 4 197 29 122 30 143 11 150 -45 17 -69 -46
-97 -249 -9 -67 -8 -82 6 -103 15 -23 15 -25 -12 -35 -43 -17 -125 -22 -155
-10 -37 14 -44 50 -29 136 7 38 21 130 30 203 19 148 16 141 115 192 68 35 82
36 108 13 13 -12 22 -14 26 -6 14 21 108 62 144 63 27 0 41 -6 52 -22z m-469
2 c-3 -5 -11 -10 -16 -10 -6 0 -7 5 -4 10 3 6 11 10 16 10 6 0 7 -4 4 -10z
m2063 -55 c0 -16 -2 -15 -8 5 -11 34 -11 60 0 35 5 -11 8 -29 8 -40z m-2193
15 c13 -6 15 -9 5 -9 -8 0 -22 4 -30 9 -18 12 -2 12 25 0z m1612 -82 c-3 -8
-6 -5 -6 6 -1 11 2 17 5 13 3 -3 4 -12 1 -19z m390 16 c-3 -3 -12 -4 -19 -1
-8 3 -5 6 6 6 11 1 17 -2 13 -5z m85 -1 c-10 -4 -9 -10 5 -27 l18 -21 -22 19
c-23 19 -22 37 0 35 8 0 8 -2 -1 -6z m-132 -13 c-8 -5 -26 -9 -40 -9 -23 1
-23 2 5 9 43 11 52 11 35 0z m-1974 -31 c15 -14 23 -16 31 -8 18 18 63 1 73
-27 15 -38 12 -82 -11 -191 -34 -156 -34 -162 -11 -193 l21 -28 -32 -25 c-74
-56 -101 -60 -141 -18 l-28 29 -61 -63 c-72 -72 -109 -87 -157 -59 -16 10 -36
32 -45 50 -19 40 -19 139 -1 216 31 126 145 275 248 323 56 26 80 25 114 -6z
m2265 -21 c8 -15 8 -18 0 -14 -6 4 -16 16 -22 28 -8 15 -8 18 0 14 6 -4 16
-16 22 -28z m-123 -19 c-3 -8 -7 -3 -11 10 -4 17 -3 21 5 13 5 -5 8 -16 6 -23z
m-2994 -24 c-4 -8 -11 -15 -16 -15 -6 0 -5 6 2 15 7 8 14 15 16 15 2 0 1 -7
-2 -15z m2609 8 c-7 -2 -19 -2 -25 0 -7 3 -2 5 12 5 14 0 19 -2 13 -5z m547
-13 c0 -5 -2 -10 -4 -10 -3 0 -8 5 -11 10 -3 6 -1 10 4 10 6 0 11 -4 11 -10z
m73 -70 c7 0 22 -6 32 -14 17 -12 15 -19 -45 -132 -35 -65 -92 -175 -128 -244
-36 -69 -68 -129 -73 -134 -4 -5 -5 -54 -2 -110 12 -222 -60 -415 -173 -462
-73 -31 -164 -4 -203 59 -49 80 -64 235 -36 382 20 106 46 154 103 190 41 26
56 30 117 29 38 -1 78 -3 88 -5 15 -3 40 39 135 226 64 127 121 235 125 242 6
9 13 7 27 -7 11 -11 26 -20 33 -20z m120 -27 c-7 -2 -19 -2 -25 0 -7 3 -2 5
12 5 14 0 19 -2 13 -5z m107 -3 c-14 -4 -38 -8 -55 -8 -29 1 -29 1 5 8 50 11
83 11 50 0z m-3068 -72 c-7 -7 -12 -8 -12 -2 0 14 12 26 19 19 2 -3 -1 -11 -7
-17z m2569 -1 c-10 -9 -11 -8 -5 6 3 10 9 15 12 12 3 -3 0 -11 -7 -18z m749
-67 c-8 -5 -19 -10 -25 -10 -5 0 -3 5 5 10 8 5 20 10 25 10 6 0 3 -5 -5 -10z
m275 0 c3 -6 -1 -7 -9 -4 -18 7 -21 14 -7 14 6 0 13 -4 16 -10z m-2225 -31 c0
-6 -7 -4 -15 5 -9 8 -23 13 -33 10 -14 -5 -14 -4 -3 4 17 12 51 -2 51 -19z
m-13 -56 c-3 -10 -5 -4 -5 12 0 17 2 24 5 18 2 -7 2 -21 0 -30z m584 8 c-16
-21 -18 -31 -9 -34 7 -3 3 -4 -8 -4 -22 1 -22 1 3 34 31 41 42 44 14 4z m-716
-1 c3 -6 -1 -7 -9 -4 -18 7 -21 14 -7 14 6 0 13 -4 16 -10z m2343 -15 c133
-56 161 -216 56 -322 -49 -48 -92 -63 -186 -63 -67 0 -68 -1 -68 -26 0 -35 28
-91 54 -109 44 -31 111 -7 143 52 20 37 31 40 72 18 81 -41 33 -136 -86 -171
-74 -22 -183 -15 -239 14 -134 68 -178 298 -88 456 33 57 102 125 149 147 50
23 142 25 193 4z m-4051 -87 c-2 -18 -4 -4 -4 32 0 36 2 50 4 33 2 -18 2 -48
0 -65z m376 57 c-3 -9 -8 -14 -10 -11 -3 3 -2 9 2 15 9 16 15 13 8 -4z m3084
9 c-3 -3 -12 -4 -19 -1 -8 3 -5 6 6 6 11 1 17 -2 13 -5z m60 0 c-3 -3 -12 -4
-19 -1 -8 3 -5 6 6 6 11 1 17 -2 13 -5z m-1003 -12 c3 -5 -8 -6 -25 -4 -16 2
-29 6 -29 8 0 8 49 4 54 -4z m906 4 c0 -2 -7 -7 -16 -10 -8 -3 -12 -2 -9 4 6
10 25 14 25 6z m-834 -45 c-3 -5 1 -14 9 -21 8 -7 15 -17 15 -22 0 -6 -9 0
-19 13 -17 21 -19 39 -5 39 3 0 3 -4 0 -9z m223 5 c-2 -2 -15 -9 -29 -15 -24
-11 -24 -11 -6 3 16 13 49 24 35 12z m-976 -27 c-6 -6 -19 -9 -29 -6 -16 4
-15 5 4 6 12 0 22 6 22 13 0 6 3 8 7 5 4 -4 2 -12 -4 -18z m917 -3 c0 -2 -7
-7 -16 -10 -8 -3 -12 -2 -9 4 6 10 25 14 25 6z m840 -61 c56 -53 57 -141 3
-197 -22 -23 -102 -58 -133 -58 -3 0 -6 29 -6 65 0 69 -16 101 -46 90 -13 -5
-17 -34 -23 -154 -7 -156 -2 -228 22 -274 7 -15 11 -32 8 -37 -8 -14 -141 -13
-167 1 -38 21 -48 67 -47 236 0 130 -4 170 -20 221 l-19 63 36 18 c101 51 175
52 187 3 l7 -27 21 29 c49 68 119 77 177 21z m-1075 19 c44 -20 59 -60 51
-128 -3 -30 -9 -62 -12 -70 -5 -13 0 -16 24 -14 50 4 115 -69 90 -99 -6 -8
-35 -13 -73 -13 l-62 0 -7 -77 c-10 -126 -7 -265 8 -323 8 -30 12 -58 8 -62
-13 -12 -116 -38 -154 -38 -63 0 -78 13 -78 68 0 26 9 101 19 167 11 66 22
143 25 170 4 28 9 62 12 78 5 26 5 27 -43 27 -61 0 -93 21 -93 61 l0 29 75 0
75 0 0 78 c-1 42 -7 94 -14 114 -12 33 -11 38 3 41 38 11 116 6 146 -9z m1785
6 c-8 -5 -19 -10 -25 -10 -5 0 -3 5 5 10 8 5 20 10 25 10 6 0 3 -5 -5 -10z
m-1666 -8 c3 -5 -1 -9 -9 -9 -8 0 -12 4 -9 9 3 4 7 8 9 8 2 0 6 -4 9 -8z
m1966 -27 c13 -14 21 -25 18 -25 -2 0 -15 11 -28 25 -13 14 -21 25 -18 25 2 0
15 -11 28 -25z m-2331 -19 c-3 -3 -11 5 -18 17 -13 21 -12 21 5 5 10 -10 16
-20 13 -22z m-130 4 c79 -22 101 -80 58 -155 l-23 -40 -88 -12 c-126 -16 -222
-41 -291 -76 -62 -31 -135 -84 -135 -99 0 -4 21 -8 48 -8 86 -1 250 -28 330
-54 135 -45 200 -121 189 -218 -18 -148 -127 -258 -322 -323 -67 -23 -97 -27
-187 -27 -253 0 -367 105 -287 263 52 103 172 135 297 78 l47 -21 -54 -17
c-30 -9 -56 -21 -58 -27 -11 -32 142 -26 235 8 106 39 163 121 136 193 -18 47
-157 75 -368 75 l-132 0 -34 33 c-61 60 -85 140 -56 195 68 131 520 282 695
232z m-1651 -17 c-21 -2 -55 -2 -75 0 -21 2 -4 4 37 4 41 0 58 -2 38 -4z
m2152 0 c0 -5 -5 -15 -10 -23 -7 -12 -9 -10 -7 8 1 19 17 33 17 15z m1910 -41
c37 -28 50 -60 50 -128 0 -74 -12 -112 -57 -181 -80 -122 -249 -209 -474 -242
-208 -31 -442 -63 -900 -121 -428 -55 -660 -99 -717 -136 l-24 -16 26 -27 c32
-33 33 -55 4 -75 -32 -22 -55 -20 -83 9 -46 45 -23 115 48 151 124 65 438 139
907 214 507 82 706 127 822 187 85 44 106 79 83 143 -8 23 -15 52 -15 63 0 29
39 102 71 133 54 52 204 67 259 26z m-4500 -57 c0 -5 -5 -3 -10 5 -5 8 -10 20
-10 25 0 6 5 3 10 -5 5 -8 10 -19 10 -25z m1215 -25 c3 -5 1 -10 -4 -10 -6 0
-11 5 -11 10 0 6 2 10 4 10 3 0 8 -4 11 -10z m-121 -92 c22 -7 47 -18 54 -25
8 -7 18 -11 23 -7 11 6 41 -15 35 -25 -2 -3 11 -17 28 -30 l31 -25 -25 30 -25
29 27 -24 c15 -13 25 -27 23 -31 -2 -4 3 -29 11 -56 60 -196 -169 -438 -499
-526 -98 -26 -243 -30 -297 -9 -137 54 -191 169 -141 301 25 66 99 168 162
223 55 48 210 136 274 155 110 33 245 42 319 20z m-996 -23 c-3 -3 -9 2 -12
12 -6 14 -5 15 5 6 7 -7 10 -15 7 -18z m2002 -25 c6 -11 9 -20 8 -20 -2 0 -11
9 -21 20 -9 11 -13 20 -7 20 5 0 14 -9 20 -20z m-82 3 c-10 -2 -28 -2 -40 0
-13 2 -5 4 17 4 22 1 32 -1 23 -4z m1462 -3 c-8 -5 -26 -9 -40 -9 -23 1 -23 2
5 9 43 11 52 11 35 0z m-3290 -10 c8 -5 11 -10 5 -10 -5 0 -17 5 -25 10 -8 5
-10 10 -5 10 6 0 17 -5 25 -10z m1747 4 c-3 -3 -12 -4 -19 -1 -8 3 -5 6 6 6
11 1 17 -2 13 -5z m-50 -11 c-9 -2 -14 -9 -10 -15 4 -8 0 -9 -11 -5 -10 4 -21
7 -24 8 -13 1 33 18 48 17 10 0 9 -2 -3 -5z m-1457 -13 c-8 -5 -19 -10 -25
-10 -5 0 -3 5 5 10 8 5 20 10 25 10 6 0 3 -5 -5 -10z m-53 -6 c-3 -3 -12 -4
-19 -1 -8 3 -5 6 6 6 11 1 17 -2 13 -5z m1823 -24 c0 -5 -2 -10 -4 -10 -3 0
-8 5 -11 10 -3 6 -1 10 4 10 6 0 11 -4 11 -10z m1197 -32 c-3 -7 -5 -2 -5 12
0 14 2 19 5 13 2 -7 2 -19 0 -25z m-2069 -58 c23 -38 27 -56 27 -117 -1 -63
-6 -81 -43 -156 -32 -66 -57 -99 -114 -153 -213 -202 -552 -293 -702 -187 -34
24 -106 123 -106 146 0 4 17 -6 38 -22 20 -16 48 -32 62 -35 14 -2 40 -10 57
-16 47 -17 301 0 289 19 -2 3 9 6 24 7 59 2 217 92 303 173 47 44 120 153 136
203 21 65 18 139 -8 184 -12 21 -15 30 -6 19 9 -11 29 -40 43 -65z m1203 -70
c0 -45 -2 -85 -5 -88 -3 -3 -6 37 -6 88 0 51 2 91 5 88 3 -3 6 -43 6 -88z
m-1070 -28 c-13 -2 -27 0 -32 5 -6 6 3 7 23 4 28 -4 29 -6 9 -9z m1606 3 c0
-8 -4 -15 -9 -15 -10 0 -11 14 -1 23 9 10 10 9 10 -8z m-1399 -2 c-27 -2 -69
-2 -95 0 -27 2 -5 3 47 3 52 0 74 -1 48 -3z m209 -29 c-3 -3 -12 -4 -19 -1 -8
3 -5 6 6 6 11 1 17 -2 13 -5z m2473 -18 c0 -2 -9 -6 -20 -9 -11 -3 -18 -1 -14
4 5 9 34 13 34 5z m-1807 -56 c3 -11 1 -20 -4 -20 -5 0 -9 9 -9 20 0 11 2 20
4 20 2 0 6 -9 9 -20z m1350 -67 c-7 -2 -21 -2 -30 0 -10 3 -4 5 12 5 17 0 24
-2 18 -5z m-70 -10 c-7 -2 -19 -2 -25 0 -7 3 -2 5 12 5 14 0 19 -2 13 -5z
m-70 -10 c-7 -2 -19 -2 -25 0 -7 3 -2 5 12 5 14 0 19 -2 13 -5z m-56 -9 c-3
-3 -12 -4 -19 -1 -8 3 -5 6 6 6 11 1 17 -2 13 -5z m-274 -31 c-7 -2 -19 -2
-25 0 -7 3 -2 5 12 5 14 0 19 -2 13 -5z m-76 -9 c-3 -3 -12 -4 -19 -1 -8 3 -5
6 6 6 11 1 17 -2 13 -5z m-64 -11 c-7 -2 -19 -2 -25 0 -7 3 -2 5 12 5 14 0 19
-2 13 -5z m-1107 -55 c-9 -12 -16 -19 -16 -15 0 11 24 47 28 42 2 -2 -3 -14
-12 -27z m34 14 c0 -5 -7 -17 -15 -28 -14 -18 -14 -17 -4 9 12 27 19 34 19 19z
m693 -9 c-7 -2 -21 -2 -30 0 -10 3 -4 5 12 5 17 0 24 -2 18 -5z m-66 -9 c-3
-3 -12 -4 -19 -1 -8 3 -5 6 6 6 11 1 17 -2 13 -5z m-250 -40 c-3 -3 -12 -4
-19 -1 -8 3 -5 6 6 6 11 1 17 -2 13 -5z m-507 -58 c0 -2 -8 -10 -17 -17 -16
-13 -17 -12 -4 4 13 16 21 21 21 13z m-749 -63 c13 -16 12 -17 -3 -4 -10 7
-18 15 -18 17 0 8 8 3 21 -13z m476 -69 c-3 -3 -12 -4 -19 -1 -8 3 -5 6 6 6
11 1 17 -2 13 -5z m550 0 c-3 -3 -12 -4 -19 -1 -8 3 -5 6 6 6 11 1 17 -2 13
-5z"/>
<path d="M2065 1988 c-48 -102 -63 -148 -47 -148 25 0 95 132 107 203 12 66
-13 42 -60 -55z"/>
<path d="M2448 1690 c-49 -26 -78 -66 -78 -106 0 -42 17 -44 55 -6 29 28 85
110 85 124 0 13 -22 9 -62 -12z"/>
<path d="M1058 1736 c-45 -96 -57 -136 -42 -136 23 0 104 162 104 207 0 18 -3
33 -7 33 -5 0 -29 -47 -55 -104z"/>
<path d="M3109 1268 c-8 -15 -13 -76 -13 -173 -1 -133 1 -154 20 -189 27 -52
39 -54 61 -14 14 26 18 56 18 148 0 140 -9 200 -36 229 -25 27 -35 27 -50 -1z"/>
<path d="M4184 1458 c-25 -12 -69 -87 -79 -137 l-7 -34 33 7 c69 13 127 105
99 156 -12 22 -16 23 -46 8z"/>
<path d="M1139 1156 c-2 -2 -26 -7 -54 -11 -27 -3 -51 -8 -53 -10 -2 -2 39 -3
91 -2 77 0 102 -3 137 -21 24 -12 48 -18 54 -15 6 3 8 3 4 -2 -4 -4 6 -23 22
-41 85 -97 25 -240 -148 -351 -115 -74 -232 -100 -309 -68 -43 18 -46 18 -37
3 4 -7 3 -8 -5 -4 -6 4 -9 11 -6 16 3 5 -3 14 -14 19 -27 15 -61 77 -61 112 0
72 60 139 177 198 116 58 260 52 291 -12 10 -20 11 -19 11 14 1 31 -3 38 -26
47 -110 42 -268 3 -381 -94 -54 -46 -94 -107 -86 -131 5 -15 4 -15 -4 -3 -9
12 -13 9 -22 -15 -6 -17 -12 -50 -12 -74 0 -147 271 -188 504 -77 73 36 164
119 207 190 26 43 34 71 39 121 4 58 2 69 -22 105 -14 22 -44 49 -67 61 -59
30 -214 60 -230 45z m148 -32 c-3 -3 -12 -4 -19 -1 -8 3 -5 6 6 6 11 1 17 -2
13 -5z m-467 -468 c0 -2 -7 -7 -16 -10 -8 -3 -12 -2 -9 4 6 10 25 14 25 6z"/>
<path d="M1315 1153 c114 -25 157 -60 178 -144 43 -162 -92 -338 -332 -435
-112 -45 -236 -54 -352 -23 -45 11 -120 65 -126 90 -3 10 -9 17 -13 14 -16
-10 0 116 20 155 11 22 18 40 15 40 -14 0 -55 -109 -55 -147 0 -57 15 -91 57
-135 47 -48 107 -63 224 -55 105 7 206 31 274 65 127 63 269 183 308 258 23
45 30 115 17 165 -23 84 -126 161 -210 158 -20 -1 -21 -2 -5 -6z"/>
<path d="M1072 1089 c-29 -4 -56 -10 -60 -14 -4 -4 13 -4 38 0 110 19 183 2
230 -51 34 -39 39 -80 16 -135 -35 -83 -195 -179 -299 -179 -74 0 -137 46
-137 100 0 49 39 67 58 26 15 -33 39 -36 109 -14 90 27 132 84 103 139 -30 55
-219 -10 -287 -99 -37 -49 -41 -78 -17 -128 20 -42 43 -49 149 -48 99 2 168
26 246 88 123 97 144 243 42 294 -46 23 -119 31 -191 21z"/>
<path d="M894 1024 c-18 -14 -18 -15 4 -4 12 6 22 13 22 15 0 8 -5 6 -26 -11z"/>
<path d="M809 963 c-13 -16 -12 -17 4 -4 9 7 17 15 17 17 0 8 -8 3 -21 -13z"/>
</g>
</svg>
