<?xml version="1.0" standalone="no"?>
<!DOCTYPE svg PUBLIC "-//W3C//DTD SVG 20010904//EN"
 "http://www.w3.org/TR/2001/REC-SVG-20010904/DTD/svg10.dtd">
<svg version="1.0" xmlns="http://www.w3.org/2000/svg"
 width="186.000000pt" height="59.000000pt" viewBox="0 0 186.000000 59.000000"
 preserveAspectRatio="xMidYMid meet">

<g transform="translate(0.000000,59.000000) scale(0.100000,-0.100000)"
fill="currentColor" stroke="none">
<path d="M213 525 c-70 -15 -150 -55 -184 -91 -22 -23 -22 -24 -4 -44 18 -20
19 -20 39 -1 12 11 48 32 80 47 109 50 252 41 349 -22 36 -24 38 -24 62 -7 13
10 25 21 25 25 0 12 -74 57 -126 77 -70 27 -167 33 -241 16z"/>
<path d="M765 471 c-51 -23 -75 -58 -81 -119 -10 -91 49 -157 139 -156 92 1
137 50 137 148 0 47 -4 60 -31 90 -26 31 -79 56 -114 56 -5 0 -28 -9 -50 -19z
m116 -60 c23 -24 29 -38 29 -74 0 -102 -119 -136 -165 -47 -27 52 -12 109 36
136 38 21 68 16 100 -15z"/>
<path d="M1000 340 l0 -140 25 0 c24 0 25 3 25 55 l0 55 53 0 c82 0 125 53 97
121 -17 41 -37 49 -124 49 l-76 0 0 -140z m144 78 c24 -33 1 -62 -53 -66 l-41
-3 0 45 0 46 39 0 c30 0 44 -6 55 -22z"/>
<path d="M1230 460 c0 -17 7 -20 45 -20 l45 0 0 -120 0 -120 26 0 25 0 -2 118
-2 117 42 3 c33 3 41 7 41 23 0 18 -8 19 -110 19 -103 0 -110 -1 -110 -20z"/>
<path d="M1500 340 l0 -140 25 0 25 0 0 140 0 140 -25 0 -25 0 0 -140z"/>
<path d="M1633 423 c62 -83 61 -79 30 -121 -16 -20 -39 -52 -52 -69 l-22 -33
30 0 c26 0 36 8 63 50 18 27 35 50 38 50 3 0 20 -23 38 -50 27 -42 37 -50 63
-50 l30 0 -22 33 c-13 17 -36 49 -52 69 -31 41 -32 38 25 115 21 29 38 55 38
58 0 3 -12 5 -27 5 -22 0 -35 -10 -58 -45 -16 -24 -32 -45 -35 -45 -3 0 -18
21 -35 45 -25 38 -35 45 -62 45 l-33 0 43 -57z"/>
<path d="M207 396 c-21 -8 -56 -26 -78 -42 -40 -27 -40 -28 -21 -47 19 -19 20
-19 58 6 76 49 175 58 247 21 25 -14 30 -13 52 4 l25 19 -59 27 c-67 30 -159
35 -224 12z"/>
<path d="M470 295 c-74 -63 -151 -122 -170 -132 -44 -23 -51 -55 -16 -78 19
-13 29 -14 45 -5 12 6 21 17 21 26 0 8 53 72 118 142 114 124 148 163 141 161
-2 0 -65 -52 -139 -114z"/>
</g>
</svg>
