<?xml version="1.0" standalone="no"?>
<!DOCTYPE svg PUBLIC "-//W3C//DTD SVG 20010904//EN"
 "http://www.w3.org/TR/2001/REC-SVG-20010904/DTD/svg10.dtd">
<svg version="1.0" xmlns="http://www.w3.org/2000/svg"
 width="225.000000pt" height="90.000000pt" viewBox="0 0 225.000000 90.000000"
 preserveAspectRatio="xMidYMid meet">

<g transform="translate(0.000000,90.000000) scale(0.100000,-0.100000)"
fill="currentColor" stroke="none">
<path d="M202 799 c-73 -22 -132 -111 -132 -199 0 -76 18 -109 105 -194 46
-44 104 -112 129 -150 43 -65 46 -74 46 -134 0 -58 -2 -63 -16 -51 -11 9 -14
23 -10 47 3 23 1 32 -7 29 -7 -2 -11 -12 -11 -21 2 -17 -12 -22 -18 -6 -2 5
-9 6 -16 1 -11 -7 -9 -16 10 -45 22 -35 25 -36 84 -36 60 0 61 1 56 25 -2 15
0 25 7 25 6 0 11 -7 11 -15 0 -8 4 -15 9 -15 12 0 36 30 25 31 -5 0 1 4 14 9
31 13 28 31 -12 69 -29 28 -37 31 -54 22 -11 -6 -24 -11 -28 -11 -17 0 7 191
36 276 42 126 42 202 -2 265 -17 26 -44 54 -60 64 -35 20 -121 28 -166 14z
m121 -171 c20 -27 20 -29 4 -63 -15 -31 -21 -35 -56 -35 -30 0 -42 5 -55 25
-21 32 -20 47 5 79 28 36 73 33 102 -6z m122 -507 c-6 -20 -28 -26 -26 -8 1 4
1 19 1 34 0 25 1 26 16 11 10 -10 14 -23 9 -37z m-54 -22 c-2 -8 -4 -20 -4
-26 -1 -28 -17 -11 -17 18 0 20 4 29 13 26 6 -2 10 -11 8 -18z"/>
<path d="M1344 630 c-46 -18 -54 -46 -54 -178 0 -157 15 -192 84 -192 13 0 35
9 50 21 26 20 26 21 26 164 0 121 -3 146 -17 163 -21 25 -60 35 -89 22z m60
-52 c12 -17 16 -48 16 -125 0 -125 -9 -153 -49 -153 -17 0 -31 6 -35 16 -3 9
-6 69 -6 134 0 94 3 122 16 134 21 22 40 20 58 -6z"/>
<path d="M564 617 c-2 -7 -3 -89 -2 -182 3 -143 5 -170 18 -170 12 0 16 16 18
73 l3 72 33 0 c19 0 44 9 57 19 21 17 24 27 23 90 0 92 -16 111 -91 111 -34 0
-55 -5 -59 -13z m110 -43 c3 -9 6 -33 6 -54 0 -58 -8 -70 -46 -70 l-34 0 0 70
0 70 34 0 c22 0 36 -6 40 -16z"/>
<path d="M740 470 c0 -158 1 -161 25 -185 29 -30 77 -33 104 -6 26 26 33 81
29 226 -2 99 -6 120 -18 120 -13 0 -15 -23 -17 -140 -4 -178 -5 -185 -43 -185
-38 0 -39 7 -43 185 -2 124 -4 140 -19 143 -17 3 -18 -10 -18 -158z"/>
<path d="M934 617 c-2 -7 -3 -88 -2 -180 4 -205 21 -226 28 -35 6 155 10 153
60 -19 31 -106 50 -137 72 -115 5 5 7 87 6 183 -3 147 -5 174 -18 174 -12 0
-16 -22 -20 -120 l-5 -120 -33 110 c-19 61 -35 116 -37 123 -6 16 -44 16 -51
-1z"/>
<path d="M1122 613 c2 -11 14 -19 30 -21 l28 -3 2 -162 c3 -136 5 -162 18
-162 13 0 15 26 18 162 l2 162 28 3 c16 2 28 10 30 21 3 15 -6 17 -78 17 -72
0 -81 -2 -78 -17z"/>
<path d="M1500 450 l0 -180 25 0 c24 0 25 2 25 71 0 67 1 70 23 67 20 -3 22
-9 25 -70 l3 -68 31 0 31 0 -5 76 c-3 48 -10 79 -18 84 -11 7 -11 11 0 26 9
10 15 40 15 76 0 77 -22 98 -101 98 l-54 0 0 -180z m98 79 c2 -31 -2 -50 -12
-58 -25 -21 -36 -3 -36 55 0 52 2 55 23 52 19 -3 22 -10 25 -49z"/>
<path d="M1720 610 c-18 -18 -20 -33 -20 -163 0 -133 2 -145 21 -163 27 -24
92 -25 116 -1 16 15 18 37 18 161 0 127 -2 146 -19 165 -25 28 -88 29 -116 1z
m80 -160 c0 -109 -3 -132 -16 -137 -29 -11 -38 16 -42 121 -4 111 5 146 38
146 19 0 20 -7 20 -130z"/>
<path d="M1930 488 c0 -79 -4 -148 -8 -154 -4 -6 -15 -13 -24 -17 -10 -3 -18
-16 -18 -27 0 -16 6 -20 34 -20 57 0 61 14 61 194 0 159 0 161 -22 164 -23 3
-23 3 -23 -140z"/>
<path d="M2041 604 c-19 -24 -21 -40 -21 -150 0 -67 4 -134 10 -149 12 -31 51
-48 95 -39 49 9 65 52 65 178 0 152 -17 186 -94 186 -25 0 -40 -7 -55 -26z
m87 -155 c2 -111 1 -127 -14 -133 -30 -11 -39 12 -43 105 -4 122 3 161 32 157
21 -3 22 -8 25 -129z"/>
<path d="M937 213 c-14 -14 -7 -74 9 -80 37 -14 70 41 44 73 -13 15 -42 19
-53 7z m39 -49 c-5 -13 -10 -14 -18 -6 -6 6 -8 18 -4 28 5 13 10 14 18 6 6 -6
8 -18 4 -28z"/>
<path d="M1037 213 c-10 -10 -8 -71 2 -77 5 -4 11 0 14 6 3 10 7 10 20 -1 10
-7 17 -12 18 -10 7 39 6 66 -3 76 -11 14 -40 17 -51 6z"/>
<path d="M1138 192 c-6 -39 11 -66 37 -60 24 4 41 49 30 74 -7 16 -9 13 -14
-15 -8 -43 -28 -51 -37 -14 -3 15 -7 33 -8 38 -2 6 -5 -5 -8 -23z"/>
<path d="M1252 208 c-18 -18 -14 -56 7 -68 27 -14 37 -13 56 6 12 12 13 19 4
30 -16 20 -26 17 -33 -8 -4 -17 -8 -20 -17 -11 -17 17 -3 43 21 43 12 0 18 5
15 10 -8 14 -38 13 -53 -2z"/>
<path d="M1367 214 c-11 -12 -8 -44 4 -44 8 0 8 -5 -1 -15 -10 -12 -9 -16 4
-21 20 -8 48 14 38 30 -4 6 -7 20 -7 31 0 20 -25 32 -38 19z"/>
<path d="M1456 188 c3 -18 8 -39 10 -46 7 -23 24 -2 24 29 0 16 5 29 10 29 6
0 10 5 10 10 0 6 -13 10 -30 10 -28 0 -29 -2 -24 -32z"/>
<path d="M1540 206 c-28 -34 11 -93 47 -70 32 20 39 41 19 63 -22 24 -49 27
-66 7z m49 -20 c9 -10 8 -16 -4 -26 -19 -16 -41 1 -32 24 8 20 21 20 36 2z"/>
<path d="M1650 174 c0 -34 3 -43 13 -37 6 4 19 6 27 5 10 -2 16 7 17 25 2 33
-13 53 -38 53 -16 0 -19 -8 -19 -46z m27 4 c-3 -8 -6 -5 -6 6 -1 11 2 17 5 13
3 -3 4 -12 1 -19z"/>
<path d="M1744 206 c-3 -8 -4 -27 -2 -43 2 -22 9 -29 31 -31 15 -2 27 1 27 7
0 6 -5 11 -11 11 -6 0 -8 7 -5 17 4 9 1 20 -6 25 -10 6 -8 8 5 8 9 0 17 5 17
10 0 15 -50 12 -56 -4z"/>
<path d="M575 180 c-4 -7 48 -10 150 -10 102 0 154 3 150 10 -4 6 -65 10 -150
10 -85 0 -146 -4 -150 -10z"/>
<path d="M1855 180 c-4 -7 48 -10 150 -10 102 0 154 3 150 10 -4 6 -65 10
-150 10 -85 0 -146 -4 -150 -10z"/>
</g>
</svg>
