<?xml version="1.0" standalone="no"?>
<!DOCTYPE svg PUBLIC "-//W3C//DTD SVG 20010904//EN"
 "http://www.w3.org/TR/2001/REC-SVG-20010904/DTD/svg10.dtd">
<svg version="1.0" xmlns="http://www.w3.org/2000/svg"
 width="455.000000pt" height="455.000000pt" viewBox="0 0 225.000000 225.000000"
 preserveAspectRatio="xMidYMid meet">

<g transform="translate(0.000000,225.000000) scale(0.100000,-0.100000)"
fill="#000000" stroke="none">
<path d="M461 1404 c-39 -33 -57 -92 -41 -140 7 -19 30 -49 56 -70 68 -56 116
-128 122 -181 3 -32 1 -43 -7 -39 -6 4 -11 18 -11 32 0 15 -4 23 -10 19 -6 -4
-8 -11 -5 -16 3 -5 -1 -6 -9 -3 -22 9 -20 -6 5 -32 25 -27 49 -21 49 12 0 13
5 24 10 24 6 0 8 -11 6 -25 -3 -17 0 -25 9 -25 9 0 12 6 9 15 -4 8 -1 15 5 15
6 0 11 -5 11 -11 0 -5 5 -7 10 -4 6 4 7 11 4 17 -4 6 -2 8 4 4 22 -13 24 16 2
39 -14 15 -28 21 -42 17 -20 -5 -20 -2 -13 54 4 32 15 84 26 114 45 129 1 210
-115 210 -33 0 -52 -6 -75 -26z m119 -79 c10 -12 10 -21 2 -40 -19 -40 -82
-29 -82 15 0 37 55 55 80 25z m80 -311 c0 -8 -4 -14 -10 -14 -5 0 -10 9 -10
21 0 11 5 17 10 14 6 -3 10 -13 10 -21z"/>
<path d="M1232 1314 c-20 -14 -22 -24 -22 -103 0 -94 7 -111 50 -111 14 0 31
5 38 12 13 13 17 175 4 194 -13 20 -47 24 -70 8z m53 -104 c0 -84 0 -85 -25
-85 -24 0 -25 3 -28 74 -4 89 1 103 30 99 22 -3 23 -7 23 -88z"/>
<path d="M1492 1314 c-20 -14 -22 -24 -22 -103 0 -97 7 -111 57 -111 44 0 56
30 51 128 -3 59 -7 77 -23 88 -24 18 -35 18 -63 -2z m48 -105 c0 -71 -2 -80
-17 -77 -15 3 -19 16 -21 67 -3 73 1 91 23 91 12 0 15 -15 15 -81z"/>
<path d="M1702 1314 c-20 -13 -22 -24 -22 -95 0 -99 9 -119 55 -119 45 0 55
20 55 114 0 63 -4 80 -20 96 -24 24 -38 25 -68 4z m48 -104 c0 -64 -3 -80 -15
-80 -12 0 -15 16 -15 80 0 64 3 80 15 80 12 0 15 -16 15 -80z"/>
<path d="M740 1211 c0 -67 4 -111 10 -111 6 0 10 20 10 45 0 40 3 45 23 45 40
0 48 13 45 71 l-3 54 -42 3 -43 3 0 -110z m65 44 c0 -34 -3 -40 -22 -43 -21
-3 -23 1 -23 43 0 42 2 46 23 43 19 -3 22 -9 22 -43z"/>
<path d="M850 1220 c0 -95 1 -100 25 -116 23 -15 27 -15 50 0 24 16 25 21 25
116 0 130 -18 132 -22 3 -3 -86 -5 -98 -22 -101 -29 -6 -36 16 -36 111 0 51
-4 87 -10 87 -6 0 -10 -40 -10 -100z"/>
<path d="M970 1210 c0 -94 2 -110 16 -110 14 0 16 12 13 85 -2 46 -1 81 2 77
4 -4 17 -42 29 -84 34 -116 50 -105 50 32 0 67 -4 110 -10 110 -6 0 -10 -33
-11 -77 l-1 -78 -26 78 c-20 58 -31 77 -44 77 -16 0 -18 -11 -18 -110z"/>
<path d="M1100 1310 c0 -5 9 -10 20 -10 19 0 20 -7 20 -100 0 -60 4 -100 10
-100 6 0 10 40 10 100 0 93 1 100 20 100 11 0 20 5 20 10 0 6 -22 10 -50 10
-27 0 -50 -4 -50 -10z"/>
<path d="M1340 1210 c0 -89 3 -110 14 -110 10 0 16 14 18 43 2 29 8 42 18 42
10 0 16 -13 18 -42 3 -35 7 -43 23 -43 14 0 19 7 19 29 0 16 -4 41 -9 55 -7
16 -6 34 1 53 7 19 7 36 -1 56 -9 24 -16 27 -56 27 l-45 0 0 -110z m68 48 c-2
-21 -8 -33 -18 -33 -10 0 -16 12 -18 33 -3 27 0 32 18 32 18 0 21 -5 18 -32z"/>
<path d="M1620 1230 c0 -71 -3 -92 -15 -96 -19 -8 -20 -34 -1 -34 43 0 46 9
46 116 0 86 -3 104 -15 104 -12 0 -15 -17 -15 -90z"/>
<path d="M970 1046 c0 -21 5 -26 26 -26 21 0 25 4 22 23 -2 14 -11 23 -25 25
-19 3 -23 -1 -23 -22z m40 -7 c0 -5 -4 -9 -10 -9 -5 0 -10 7 -10 16 0 8 5 12
10 9 6 -3 10 -10 10 -16z"/>
<path d="M1040 1047 c0 -16 6 -23 20 -24 15 -1 20 4 20 23 0 17 -5 24 -20 24
-14 0 -20 -7 -20 -23z m30 3 c0 -5 -5 -10 -11 -10 -5 0 -7 5 -4 10 3 6 8 10
11 10 2 0 4 -4 4 -10z"/>
<path d="M1111 1048 c-1 -22 4 -28 19 -28 15 0 20 6 19 28 -2 23 -2 24 -6 5
-2 -13 -8 -23 -13 -23 -5 0 -11 10 -13 23 -4 19 -4 18 -6 -5z"/>
<path d="M1180 1055 c-16 -19 -4 -35 26 -35 25 0 28 7 18 34 -8 20 -28 21 -44
1z m27 -10 c0 -8 -4 -15 -9 -15 -4 0 -8 7 -8 15 0 8 4 15 8 15 5 0 9 -7 9 -15z"/>
<path d="M1255 1059 c-4 -6 -2 -15 5 -19 10 -6 9 -9 -1 -13 -8 -3 -5 -6 8 -6
18 -1 22 4 20 21 -4 25 -22 35 -32 17z"/>
<path d="M1318 1043 c3 -17 7 -22 10 -13 3 8 9 21 15 28 7 9 4 12 -10 12 -17
0 -19 -5 -15 -27z"/>
<path d="M1364 1055 c-4 -9 -2 -21 4 -27 16 -16 47 -5 47 17 0 26 -42 34 -51
10z m41 -4 c7 -12 -12 -24 -25 -16 -11 7 -4 25 10 25 5 0 11 -4 15 -9z"/>
<path d="M1440 1048 c0 -16 6 -24 19 -25 24 -2 23 40 -1 45 -13 3 -18 -3 -18
-20z"/>
<path d="M1500 1045 c0 -19 5 -25 23 -25 16 0 18 3 9 9 -8 4 -14 12 -14 16 0
4 6 12 14 16 9 6 7 9 -9 9 -18 0 -23 -6 -23 -25z"/>
<path d="M788 1043 c28 -2 76 -2 105 0 28 2 5 3 -53 3 -58 0 -81 -1 -52 -3z"/>
<path d="M1618 1043 c28 -2 76 -2 105 0 28 2 5 3 -53 3 -58 0 -81 -1 -52 -3z"/>
</g>
</svg>
